PathFileType	4	(X/Y/Z)	E:\3-PhD\Data\MocapData\ElaboratedData\015\pre\dynamicElaborations\RunA1\RunA1.trc
DataRate	CameraRate	NumFrames	NumMarkers	Units	OrigDataRate	DataStartFrame
200	200	5	61	mm	200	363
Frame#	Time	FHD			LBHD			RBHD			C7			T10			CLAV			LSHO			LUUPA			LMUPA			LDUPA			LLEP			LMEP			LRAD			LUL			LRFIN			RSHO			RUPA1			RMUPA			RDUPA			RLEP			RMEP			RRAD			RUL			RUFIN			LASI			RASI			USACR			LSACR			RSACR			LTHI1			LTHI2			LTHI3			LTHI4			LLFC			LMFC			LTIB1			LTIB2			LTIB3			LTIB4			LLMAL			LMMAL			LHEE			LMT1			LMT5			LMT2			RTHI			RTHI2			RTHI3			RTHI4			RLFC			RMFC			RTIB1			RTIB2			RTIB3			RTIB4			RLMAL			RMMAL			RHEE			RMT1			RMT2			RMT5		
		X1	Y1	Z1	X2	Y2	Z2	X3	Y3	Z3	X4	Y4	Z4	X5	Y5	Z5	X6	Y6	Z6	X7	Y7	Z7	X8	Y8	Z8	X9	Y9	Z9	X10	Y10	Z10	X11	Y11	Z11	X12	Y12	Z12	X13	Y13	Z13	X14	Y14	Z14	X15	Y15	Z15	X16	Y16	Z16	X17	Y17	Z17	X18	Y18	Z18	X19	Y19	Z19	X20	Y20	Z20	X21	Y21	Z21	X22	Y22	Z22	X23	Y23	Z23	X24	Y24	Z24	X25	Y25	Z25	X26	Y26	Z26	X27	Y27	Z27	X28	Y28	Z28	X29	Y29	Z29	X30	Y30	Z30	X31	Y31	Z31	X32	Y32	Z32	X33	Y33	Z33	X34	Y34	Z34	X35	Y35	Z35	X36	Y36	Z36	X37	Y37	Z37	X38	Y38	Z38	X39	Y39	Z39	X40	Y40	Z40	X41	Y41	Z41	X42	Y42	Z42	X43	Y43	Z43	X44	Y44	Z44	X45	Y45	Z45	X46	Y46	Z46	X47	Y47	Z47	X48	Y48	Z48	X49	Y49	Z49	X50	Y50	Z50	X51	Y51	Z51	X52	Y52	Z52	X53	Y53	Z53	X54	Y54	Z54	X55	Y55	Z55	X56	Y56	Z56	X57	Y57	Z57	X58	Y58	Z58	X59	Y59	Z59	X60	Y60	Z60	X61	Y61	Z61	

435	2.170000	-1548.572313	1482.552148	216.443791	-1680.239703	1539.857612	209.015962	-1686.778505	1538.306741	335.579749	-1824.002767	1442.577169	272.799962	-1994.245996	1160.687132	213.463259	-1718.309863	1311.312789	253.378812	-1760.151316	1423.103146	87.280494	-1843.341004	1279.769977	-30.438893	-1840.880622	1231.174588	-19.951953	-1872.229557	1229.705521	-68.791514	-1934.264686	1184.771898	-109.670944	-1988.574343	1162.551063	-27.120839	-1873.941265	925.664862	-88.943881	-1848.009878	952.413430	-21.656010	-1797.032268	879.356015	-22.070293	-1772.195086	1362.346165	449.691768	-1863.797789	1208.521228	534.914175	-1845.519853	1166.719986	522.386300	-1892.905370	1146.796479	552.735576	-1929.426341	1042.723859	557.530793	-1983.672600	1051.932328	499.462658	-1742.068657	958.816854	392.388481	-1754.139277	888.581922	417.380552	-1664.575812	933.338823	394.842810	-1883.359171	952.142672	110.090585	-1920.650815	966.483420	352.568733	-2052.807373	1059.710635	206.076307	-2062.786838	1027.397487	179.722037	-2071.833583	1034.290130	235.195929	-1925.789522	649.213875	35.215596	-1874.104749	582.086556	37.555752	-1827.595872	589.393939	48.347551	-1884.778594	526.568755	63.888768	-1888.035413	465.903334	78.956544	-1886.969106	465.708732	206.544806	-2017.993178	403.326710	123.280157	-2064.393233	453.299419	65.095776	-2065.501949	420.362099	92.871967	-2146.732123	423.799467	124.173124	-2265.108556	486.067969	95.424407	-2258.098992	474.629518	182.669867	-2319.866970	555.881235	141.228419	-2314.902819	345.134054	175.022010	-2338.879732	373.234380	74.699067	-2311.510544	340.602195	125.785751	-1940.846699	780.564999	430.212915	-1891.669595	737.526749	429.350234	-1860.595018	746.882869	415.863979	-1901.392065	652.465720	423.271287	-1894.903596	458.164965	370.025431	-1857.048695	469.372580	251.469364	-1891.391512	253.538515	303.751426	-1986.698821	201.045317	323.846124	-1943.915479	184.905010	312.339654	-1949.038619	142.089305	273.700888	-2021.408256	96.563016	286.600728	-2004.122119	109.479615	204.955450	-2101.430421	50.512000	222.150031	-1876.170910	54.511705	251.060474	-1889.136971	51.435280	289.332106	-1937.846201	23.839665	338.283427	
436	2.175000	-1522.786444	1482.659161	215.814373	-1654.982244	1538.957503	208.983970	-1660.730923	1537.589285	335.587941	-1798.654372	1440.465455	274.345018	-1967.484807	1157.358823	214.561195	-1691.180378	1309.353988	252.870579	-1735.392696	1422.490920	87.920325	-1821.881806	1281.635092	-30.489248	-1820.171248	1232.267805	-21.042473	-1852.129703	1232.583771	-69.183569	-1916.403959	1189.635587	-110.353683	-1969.873515	1166.666649	-27.416960	-1864.948619	928.341992	-98.446182	-1837.445843	951.957894	-30.144199	-1789.318158	876.806266	-33.589722	-1744.560987	1360.199965	450.010910	-1827.846636	1200.566011	532.042907	-1808.544872	1159.879648	517.303077	-1853.903735	1137.031486	548.565738	-1886.525732	1031.045573	550.661446	-1942.791614	1038.958815	494.156726	-1697.822091	963.105347	382.594576	-1705.539003	891.390739	405.815862	-1619.000165	941.737412	383.622599	-1856.355163	948.662626	111.758996	-1894.406737	963.498179	354.506264	-2026.103661	1057.119524	207.239805	-2036.363116	1024.763204	181.059688	-2045.345135	1032.158109	236.489464	-1887.696038	649.005573	35.886716	-1832.798480	584.478068	38.426149	-1786.725257	593.762640	49.600283	-1840.504472	528.908079	65.635171	-1839.998752	468.770092	80.915910	-1839.098109	468.477187	208.874224	-1968.411080	405.440828	124.846782	-2014.795152	453.347277	65.302568	-2015.818169	421.133346	93.999508	-2097.373525	424.237628	124.570899	-2216.898025	484.861965	94.495264	-2210.772324	473.818279	181.742823	-2274.926589	553.233020	139.556537	-2263.219953	342.722846	173.215926	-2286.224699	370.279541	72.410126	-2258.796838	338.365764	124.023708	-1919.011087	777.672584	431.093564	-1870.887883	733.499173	430.397451	-1839.467831	742.169701	417.169295	-1882.661601	648.696357	424.110653	-1880.199382	454.235259	370.885927	-1841.973528	464.342853	251.885115	-1884.137440	249.497112	303.115926	-1981.275656	200.448850	323.041943	-1939.131050	182.704737	311.430276	-1945.990492	140.335621	272.517521	-2020.435588	98.007419	285.658476	-2002.586865	110.259088	203.760772	-2101.172772	52.435799	220.402022	-1876.201661	54.614726	250.744328	-1889.383902	51.686533	289.046662	-1938.431526	24.634906	337.967325	
437	2.180000	-1496.981154	1482.919430	215.231930	-1629.704867	1538.215468	208.934730	-1634.717115	1537.033030	335.579901	-1773.033348	1438.633674	275.702244	-1940.678197	1154.201025	215.624853	-1664.080310	1307.725930	252.352878	-1710.426195	1422.121234	88.557740	-1800.475834	1284.238517	-30.814061	-1799.306779	1234.275987	-22.578173	-1832.215952	1236.396172	-69.840373	-1898.576015	1195.321372	-110.960508	-1951.030167	1171.610642	-27.619078	-1855.476359	932.492329	-106.897785	-1826.302840	953.245416	-38.030655	-1780.872479	876.279165	-44.407119	-1716.747239	1358.635912	450.136283	-1791.795439	1193.965404	528.871305	-1771.516808	1154.440366	512.140656	-1814.819800	1128.847397	544.158890	-1843.339425	1021.241713	543.575591	-1901.545685	1027.776436	488.459936	-1654.022992	969.027099	373.067318	-1657.352024	896.118858	394.453966	-1574.070313	951.793449	372.827364	-1829.447098	945.084195	113.384772	-1868.028534	960.857007	356.489549	-1999.303655	1054.641394	208.292800	-2009.874958	1022.268810	182.275016	-2018.687433	1030.113506	237.670047	-1849.579037	649.727883	36.800966	-1791.444883	588.101715	39.700556	-1745.970152	599.430071	51.296005	-1796.179766	532.549115	67.626362	-1791.865989	472.954541	83.257653	-1791.453439	472.800171	211.528610	-1918.452365	407.996176	126.524796	-1964.985069	453.766972	65.754519	-1965.802330	422.206106	95.266731	-2047.722595	424.446340	124.976096	-2168.856665	482.630566	93.485061	-2163.661672	472.070283	180.755657	-2230.349788	549.236648	137.634401	-2211.134223	339.334185	171.622008	-2233.287672	366.128680	70.300244	-2205.694327	335.108412	122.496264	-1896.966611	775.067652	431.725510	-1849.932679	729.798817	431.173217	-1818.242019	737.775258	418.109398	-1863.811016	645.282903	424.783454	-1865.491318	450.767182	371.840966	-1826.909174	459.644329	252.365556	-1877.246446	245.940706	302.889642	-1976.105932	200.428710	322.696287	-1934.628241	181.067997	311.026328	-1943.137182	139.143994	271.975789	-2019.484455	99.785660	285.345280	-2001.031757	111.647903	203.174182	-2100.891056	55.036354	219.169753	-1876.190285	54.788538	250.674427	-1889.560615	51.921787	288.992285	-1938.952408	25.197118	337.721645	
438	2.185000	-1471.107939	1483.324522	214.711169	-1604.337293	1537.663086	208.848977	-1608.708619	1536.654854	335.543147	-1747.085903	1437.134005	276.851493	-1913.755866	1151.302564	216.697797	-1637.010464	1306.496459	251.808497	-1685.252160	1422.037410	89.151374	-1779.153128	1287.661925	-31.394968	-1778.307079	1237.350937	-24.494563	-1812.508021	1241.240088	-70.722484	-1880.731403	1201.871439	-111.450305	-1931.988246	1177.423087	-27.699788	-1845.425540	937.987295	-114.182653	-1814.432651	956.190594	-45.243232	-1771.509941	877.662309	-54.414698	-1688.724950	1357.695950	450.060704	-1755.852906	1188.761604	525.526243	-1734.607587	1150.427524	507.066135	-1775.914631	1122.289037	539.628213	-1800.150436	1013.397606	536.423652	-1860.152072	1018.520245	482.471392	-1610.845128	976.550665	363.889122	-1609.817386	902.733198	383.357265	-1529.961551	963.417845	362.535043	-1802.574455	941.495964	114.936873	-1841.464462	958.498609	358.521957	-1972.326930	1052.320845	209.237937	-1983.227717	1019.975160	183.337393	-1991.763503	1028.159864	238.714630	-1811.464372	651.443867	37.970389	-1750.126328	592.990825	41.376143	-1705.418482	606.427628	53.425640	-1751.934196	537.517199	69.825794	-1743.809114	478.508126	85.942001	-1744.254547	478.745606	214.443182	-1868.239430	411.024539	128.297059	-1915.064443	454.680445	66.489745	-1915.569808	423.666360	96.655282	-1997.857037	424.461100	125.377032	-2120.995406	479.389937	92.423083	-2116.765136	469.358154	179.731139	-2186.086882	543.862871	135.526843	-2158.650492	335.012713	170.255891	-2180.098864	360.851582	68.403672	-2152.227848	330.886750	121.204143	-1874.641736	772.633920	432.143428	-1828.774612	726.265491	431.721498	-1796.871418	733.502737	418.740711	-1844.867882	642.092227	425.287543	-1851.071526	447.577620	372.806650	-1812.035317	455.072979	252.923519	-1870.754867	242.814871	303.046038	-1971.215684	200.892018	322.788473	-1930.428055	179.918501	311.094755	-1940.502787	138.439362	272.027090	-2018.569983	101.834666	285.626203	-1999.522643	113.530858	203.163146	-2100.626421	58.234808	218.527957	-1876.173010	54.955587	250.813615	-1889.695263	52.089900	289.139936	-1939.417369	25.499685	337.557807	
439	2.190000	-1445.123496	1483.870961	214.257775	-1578.815420	1537.336806	208.705306	-1582.681266	1536.470049	335.461903	-1720.803945	1435.994412	277.786791	-1886.655217	1148.730932	217.823029	-1609.963337	1305.710907	251.206808	-1659.890862	1422.288392	89.661246	-1757.911632	1291.956424	-32.180723	-1757.223847	1241.548242	-26.683646	-1792.980138	1247.152466	-71.748705	-1862.805976	1209.286971	-111.777961	-1912.690697	1184.096055	-27.623154	-1834.684503	944.680406	-120.227819	-1801.699305	960.664119	-51.727770	-1761.081669	880.812518	-63.508914	-1660.473798	1357.402163	449.776497	-1720.189500	1184.939064	522.135380	-1697.954748	1147.809260	502.225813	-1737.401214	1117.333994	535.089417	-1757.227102	1007.502002	529.354479	-1818.814439	1011.220485	476.306263	-1568.459463	985.595288	355.136452	-1563.169802	911.149301	372.593344	-1486.846633	976.488564	352.814968	-1775.663627	937.999301	116.374430	-1814.680928	956.289494	360.587561	-1945.102459	1050.197144	210.097461	-1956.334580	1017.937049	184.232171	-1964.496151	1026.295504	239.616865	-1773.395250	654.169579	39.397765	-1708.948168	599.116825	43.415895	-1665.168174	614.709141	55.953315	-1707.902978	543.781674	72.193038	-1696.012032	485.425692	88.916967	-1697.714281	486.303294	217.530403	-1817.918141	414.545225	130.157950	-1865.153267	456.164836	67.523062	-1865.252148	425.570536	98.141751	-1947.855399	424.307326	125.762791	-2073.295888	475.160638	91.345745	-2070.045918	465.663235	178.688362	-2142.059805	537.091543	133.305995	-2105.738803	329.817189	169.124048	-2126.647260	354.529770	66.748993	-2098.384007	325.774951	120.139726	-1851.973082	770.273632	432.387398	-1807.390615	722.770204	432.081152	-1775.317627	729.186614	419.120993	-1825.849804	639.026793	425.621394	-1837.224100	444.555981	373.697726	-1797.558875	450.488821	253.554128	-1864.651050	240.102659	303.513739	-1966.573910	201.769674	323.259400	-1926.495047	179.210400	311.560695	-1938.059233	138.179440	272.568447	-2017.665784	104.126599	286.412717	-1998.073286	115.817817	203.652727	-2100.381145	61.985301	218.477874	-1876.170920	55.066880	251.110586	-1889.808732	52.167536	289.442084	-1939.839089	25.561980	337.464838	
